<?xml version="1.0" encoding="iso-8859-1"?>
<!-- Generator: Adobe Illustrator 19.0.0, SVG Export Plug-In . SVG Version: 6.00 Build 0)  -->
<svg xmlns="http://www.w3.org/2000/svg" xmlns:xlink="http://www.w3.org/1999/xlink" version="1.1" id="Capa_1" x="0px" y="0px" viewBox="0 0 512 512" style="enable-background:new 0 0 512 512;" xml:space="preserve">
<path style="fill:#FFC850;" d="M256,64c-8.836,0-16,7.163-16,16v56h32V80C272,71.163,264.836,64,256,64z"/>
<circle style="fill:#FFDC64;" cx="256" cy="312" r="192"/>
<path style="fill:#FFC850;" d="M424,312c0-92.784-75.216-168-168-168c-8.247,0-16.29,0.794-24.219,1.942  c18.372-10.663,38.638-18.427,60.219-22.522c-11.666-2.214-23.689-3.419-36-3.419c-106.039,0-192,85.961-192,192s85.961,192,192,192  c12.311,0,24.334-1.206,36-3.419c-21.581-4.096-41.846-11.86-60.218-22.522c7.929,1.146,15.971,1.94,24.218,1.94  C348.784,480,424,404.784,424,312z"/>
<circle style="fill:#FAEBC8;" cx="256" cy="312" r="152"/>
<path style="fill:#EBC9A0;" d="M256,192c-66.172,0-120,53.832-120,120s53.828,120,120,120s120-53.832,120-120S322.172,192,256,192z   M359.699,306.073L288,280c0,0-18.203-50.058-26.073-71.7C314.535,211.288,356.712,253.462,359.699,306.073z M250.073,208.3L224,280  c0,0-50.058,18.203-71.7,26.073C155.288,253.462,197.465,211.288,250.073,208.3z M152.3,317.927L224,344  c0,0,18.203,50.058,26.073,71.7C197.465,412.712,155.288,370.538,152.3,317.927z M261.927,415.7C269.797,394.058,288,344,288,344  s50.058-18.203,71.699-26.073C356.712,370.538,314.535,412.712,261.927,415.7z"/>
<circle style="fill:#FFF082;" cx="256" cy="312" r="24"/>
<path style="fill:#FFDC64;" d="M272,328c-13.255,0-24-10.745-24-24c0-6.084,2.337-11.575,6.068-15.805  C241.733,289.195,232,299.407,232,312c0,13.255,10.745,24,24,24c7.171,0,13.534-3.208,17.932-8.195  C273.284,327.858,272.662,328,272,328z"/>
<path d="M279.532,113.618V88.94c14.755-8.397,24.048-24.131,24.048-41.36C303.581,21.344,282.236,0,256,0  s-47.581,21.344-47.581,47.581c0,17.227,9.294,32.962,24.048,41.36v24.678C133.3,125.302,56.113,209.856,56.113,312.113  C56.113,422.331,145.782,512,256,512s199.887-89.669,199.887-199.887C455.887,209.856,378.7,125.302,279.532,113.618z M256,15  c17.965,0,32.581,14.615,32.581,32.581c0,9.256-3.931,17.869-10.497,23.935c-3.317-8.981-11.964-15.402-22.083-15.402  c-10.119,0-18.766,6.421-22.083,15.402c-6.566-6.066-10.497-14.679-10.497-23.934C223.419,29.615,238.035,15,256,15z   M247.468,79.645c0-4.705,3.828-8.532,8.532-8.532c4.704,0,8.532,3.828,8.532,8.532v32.775c-2.831-0.119-5.673-0.194-8.532-0.194  s-5.702,0.075-8.532,0.194V79.645z M256,497c-101.947,0-184.887-82.94-184.887-184.887S154.053,127.226,256,127.226  s184.887,82.94,184.887,184.887S357.947,497,256,497z"/>
<path d="M111.369,304.957c1.767-35.945,16.767-69.768,42.237-95.238s59.293-40.47,95.238-42.237  c35.705-1.752,70.573,9.615,98.206,32.015c3.218,2.609,7.941,2.115,10.549-1.103s2.114-7.941-1.104-10.549  c-30.505-24.728-69.003-37.281-108.388-35.344c-39.672,1.95-77,18.504-105.108,46.612S98.336,264.55,96.387,304.221  c-1.937,39.389,10.616,77.882,35.344,108.388c1.482,1.828,3.647,2.777,5.831,2.777c1.659,0,3.329-0.548,4.718-1.674  c3.218-2.608,3.712-7.331,1.104-10.549C120.984,375.53,109.615,340.653,111.369,304.957z"/>
<path d="M380.269,211.617c-2.609-3.218-7.331-3.711-10.549-1.103c-3.218,2.608-3.712,7.331-1.104,10.549  c22.399,27.633,33.769,62.51,32.015,98.206c-1.767,35.945-16.767,69.768-42.237,95.238s-59.293,40.47-95.238,42.237  c-2.401,0.118-4.792,0.177-7.184,0.177c-33.166-0.001-65.248-11.298-91.022-32.191c-3.217-2.608-7.94-2.114-10.549,1.104  s-2.114,7.94,1.104,10.549c28.457,23.068,63.86,35.54,100.463,35.539c2.634,0,5.28-0.065,7.924-0.195  c39.671-1.95,77-18.504,105.108-46.612s44.663-65.437,46.612-105.108C417.549,280.615,404.997,242.123,380.269,211.617z"/>
<path d="M256,280.564c-17.396,0-31.548,14.153-31.548,31.548c0,17.396,14.152,31.549,31.548,31.549s31.548-14.153,31.548-31.549  C287.548,294.717,273.396,280.564,256,280.564z M256,328.661c-9.125,0-16.548-7.424-16.548-16.549s7.423-16.548,16.548-16.548  s16.548,7.424,16.548,16.548C272.548,321.238,265.125,328.661,256,328.661z"/>
<path d="M383.742,312.113c0-3.154-1.973-5.971-4.937-7.048l-77.11-28.04l15.721-15.721c2.929-2.929,2.929-7.677,0-10.606  s-7.678-2.929-10.606,0l-15.721,15.721l-28.04-77.11c-1.078-2.964-3.895-4.937-7.048-4.937s-5.971,1.973-7.048,4.937l-28.04,77.11  l-15.721-15.721c-2.929-2.929-7.678-2.929-10.606,0c-2.929,2.929-2.929,7.677,0,10.606l15.721,15.721l-77.11,28.04  c-2.964,1.078-4.937,3.895-4.937,7.048s1.973,5.971,4.937,7.048l77.11,28.04l-15.721,15.721c-2.929,2.929-2.929,7.677,0,10.606  c1.464,1.465,3.384,2.197,5.303,2.197s3.839-0.732,5.303-2.197l15.721-15.721l28.04,77.11c1.078,2.964,3.895,4.937,7.048,4.937  c3.153,0,5.971-1.973,7.048-4.937l28.04-77.11l15.721,15.721c1.464,1.465,3.384,2.197,5.303,2.197s3.839-0.732,5.303-2.197  c2.929-2.929,2.929-7.677,0-10.606l-15.721-15.721l77.11-28.04C381.769,318.084,383.742,315.267,383.742,312.113z M285.501,337.129  c-2.085,0.758-3.728,2.4-4.485,4.485L256,410.409l-25.016-68.794c-0.758-2.085-2.4-3.727-4.485-4.485l-68.794-25.016l68.794-25.016  c2.085-0.758,3.728-2.4,4.485-4.485L256,213.817l25.016,68.794c0.758,2.085,2.4,3.727,4.485,4.485l68.794,25.016L285.501,337.129z"/>
<path d="M148.422,287.557c3.232,0,6.217-2.106,7.186-5.363c10.119-34.006,36.461-60.35,70.467-70.471  c3.97-1.182,6.231-5.358,5.049-9.328c-1.182-3.969-5.355-6.231-9.328-5.049c-38.879,11.571-68.997,41.691-80.565,80.57  c-1.181,3.97,1.08,8.146,5.049,9.327C146.994,287.456,147.714,287.557,148.422,287.557z"/>
<path d="M155.612,342.045c-1.182-3.97-5.358-6.229-9.329-5.048c-3.97,1.182-6.23,5.358-5.048,9.328  c10.541,35.406,37.455,64.433,71.997,77.647c0.881,0.337,1.787,0.497,2.678,0.497c3.018,0,5.864-1.835,7.006-4.822  c1.48-3.869-0.457-8.205-4.325-9.685C188.375,398.403,164.831,373.013,155.612,342.045z"/>
<path d="M356.391,342.035c-9.217,30.975-32.764,56.369-62.988,67.929c-3.869,1.48-5.806,5.816-4.326,9.684  c1.143,2.988,3.988,4.823,7.006,4.823c0.891,0,1.796-0.16,2.678-0.497c34.55-13.215,61.468-42.247,72.006-77.66  c1.182-3.97-1.079-8.146-5.049-9.328C361.746,335.805,357.573,338.066,356.391,342.035z"/>
<path d="M290.211,197.348c-3.967-1.183-8.146,1.078-9.328,5.048s1.079,8.146,5.049,9.328c33.996,10.12,60.335,36.458,70.456,70.455  c0.969,3.256,3.953,5.362,7.185,5.362c0.708,0,1.429-0.101,2.143-0.314c3.97-1.182,6.23-5.358,5.048-9.328  C359.193,239.032,329.08,208.919,290.211,197.348z"/>
<g>
</g>
<g>
</g>
<g>
</g>
<g>
</g>
<g>
</g>
<g>
</g>
<g>
</g>
<g>
</g>
<g>
</g>
<g>
</g>
<g>
</g>
<g>
</g>
<g>
</g>
<g>
</g>
<g>
</g>
</svg>
